<svg width="32" height="32" viewBox="0 0 100 100" fill="none" xmlns="http://www.w3.org/2000/svg">
    <!-- Brain Outline -->
    <path d="M50 10 C 25 10, 15 30, 20 50 C 15 70, 25 90, 50 90 C 75 90, 85 70, 80 50 C 85 30, 75 10, 50 10 Z" stroke="#30d158" stroke-width="4" fill="#30d158" fill-opacity="0.3"/>
    <!-- Internal brain folds -->
    <path d="M50 10 V 40 C 40 50, 60 60, 50 70 V 90" stroke="#30d158" stroke-width="2" stroke-opacity="0.7"/>
    <path d="M35 25 C 45 35, 45 55, 35 65" stroke="#30d158" stroke-width="2" stroke-opacity="0.7"/>
    <path d="M65 25 C 55 35, 55 55, 65 65" stroke="#30d158" stroke-width="2" stroke-opacity="0.7"/>
    <!-- Upward-trending chart line -->
    <polyline points="25,65 35,55 45,60 55,45 65,40 75,25" stroke="#30d158" stroke-width="4" stroke-linecap="round" stroke-linejoin="round"/>
    <!-- Nodes -->
    <g fill="#30d158">
        <circle cx="25" cy="65" r="2.5"/>
        <circle cx="35" cy="55" r="2.5"/>
        <circle cx="45" cy="60" r="2.5"/>
        <circle cx="55" cy="45" r="2.5"/>
        <circle cx="65" cy="40" r="2.5"/>
        <circle cx="75" cy="25" r="2.5"/>
    </g>
</svg>
